<svg width="756" height="815" viewBox="0 0 756 815" fill="none" xmlns="http://www.w3.org/2000/svg">
<rect x="68" width="640" height="815" rx="54" fill="#0071BD"/>
<path d="M305.016 102.122V60.3936H315.32L322.04 78.9536C322.466 80.1909 322.872 81.4709 323.256 82.7936C323.64 84.0736 324.045 85.3536 324.472 86.6336H324.728C325.154 85.3536 325.538 84.0736 325.88 82.7936C326.264 81.4709 326.669 80.1909 327.096 78.9536L333.688 60.3936H343.928V102.122H335.352V86.8256C335.352 85.8016 335.394 84.6709 335.48 83.4336C335.565 82.1962 335.672 80.9589 335.8 79.7216C335.928 78.4416 336.056 77.2042 336.184 76.0096C336.312 74.7722 336.44 73.6416 336.568 72.6176H336.312L332.92 82.5376L326.968 98.4736H321.784L315.832 82.5376L312.504 72.6176H312.248C312.376 73.6416 312.504 74.7722 312.632 76.0096C312.76 77.2042 312.888 78.4416 313.016 79.7216C313.144 80.9589 313.25 82.1962 313.336 83.4336C313.421 84.6709 313.464 85.8016 313.464 86.8256V102.122H305.016ZM367.206 102.89C364.944 102.89 362.832 102.527 360.87 101.802C358.907 101.034 357.2 99.9456 355.75 98.5376C354.299 97.0869 353.168 95.3376 352.358 93.2896C351.547 91.2416 351.142 88.8949 351.142 86.2496C351.142 83.6896 351.568 81.3856 352.422 79.3376C353.275 77.2469 354.384 75.4976 355.75 74.0896C357.158 72.6389 358.758 71.5296 360.55 70.7616C362.342 69.9936 364.198 69.6096 366.118 69.6096C368.379 69.6096 370.342 69.9936 372.006 70.7616C373.712 71.5296 375.12 72.5962 376.23 73.9616C377.382 75.3269 378.235 76.9482 378.79 78.8256C379.344 80.6602 379.622 82.6656 379.622 84.8416C379.622 85.6949 379.579 86.5056 379.494 87.2736C379.408 88.0416 379.323 88.6176 379.238 89.0016H360.23C360.656 91.3056 361.595 93.0122 363.046 94.1216C364.539 95.1882 366.352 95.7216 368.486 95.7216C370.747 95.7216 373.03 95.0176 375.334 93.6096L378.47 99.3056C376.848 100.415 375.035 101.29 373.03 101.93C371.067 102.57 369.126 102.89 367.206 102.89ZM360.166 82.7936H371.622C371.622 81.0016 371.216 79.5509 370.406 78.4416C369.595 77.3322 368.23 76.7776 366.31 76.7776C364.816 76.7776 363.494 77.2682 362.342 78.2496C361.232 79.2309 360.507 80.7456 360.166 82.7936ZM386.123 102.122V70.3776H393.803L394.443 74.4096H394.699C396.064 73.1296 397.557 72.0202 399.179 71.0816C400.8 70.1002 402.699 69.6096 404.875 69.6096C408.331 69.6096 410.827 70.7402 412.363 73.0016C413.941 75.2629 414.731 78.3989 414.731 82.4096V102.122H405.323V83.6256C405.323 81.3216 405.003 79.7429 404.363 78.8896C403.765 78.0362 402.784 77.6096 401.419 77.6096C400.224 77.6096 399.2 77.8869 398.347 78.4416C397.493 78.9536 396.555 79.7002 395.531 80.6816V102.122H386.123ZM432.284 102.89C428.828 102.89 426.31 101.759 424.732 99.4976C423.196 97.2362 422.428 94.1002 422.428 90.0896V70.3776H431.836V88.8736C431.836 91.1776 432.156 92.7562 432.796 93.6096C433.436 94.4629 434.438 94.8896 435.804 94.8896C436.998 94.8896 438.001 94.6122 438.812 94.0576C439.622 93.5029 440.497 92.6069 441.436 91.3696V70.3776H450.844V102.122H443.164L442.46 97.7056H442.268C440.902 99.3269 439.43 100.607 437.852 101.546C436.316 102.442 434.46 102.89 432.284 102.89Z" fill="white"/>
<path d="M137.582 230.465V206.849H151.19V209.369H140.57V217.361H149.57V219.881H140.57V230.465H137.582ZM158.215 230.897C157.087 230.897 156.283 230.561 155.803 229.889C155.323 229.217 155.083 228.233 155.083 226.937V204.833H158.035V227.153C158.035 227.633 158.119 227.969 158.287 228.161C158.455 228.353 158.647 228.449 158.863 228.449C158.959 228.449 159.043 228.449 159.115 228.449C159.211 228.449 159.343 228.425 159.511 228.377L159.907 230.609C159.715 230.705 159.487 230.777 159.223 230.825C158.959 230.873 158.623 230.897 158.215 230.897ZM168.291 230.897C166.827 230.897 165.603 230.465 164.619 229.601C163.659 228.737 163.179 227.513 163.179 225.929C163.179 224.009 164.031 222.545 165.735 221.537C167.439 220.505 170.163 219.785 173.907 219.377C173.907 218.825 173.847 218.285 173.727 217.757C173.631 217.229 173.451 216.761 173.187 216.353C172.923 215.945 172.551 215.621 172.071 215.381C171.615 215.117 171.027 214.985 170.307 214.985C169.299 214.985 168.351 215.177 167.463 215.561C166.575 215.945 165.783 216.377 165.087 216.857L163.935 214.805C164.751 214.277 165.747 213.773 166.923 213.293C168.099 212.789 169.395 212.537 170.811 212.537C172.947 212.537 174.495 213.197 175.455 214.517C176.415 215.813 176.895 217.553 176.895 219.737V230.465H174.447L174.195 228.377H174.087C173.247 229.073 172.347 229.673 171.387 230.177C170.427 230.657 169.395 230.897 168.291 230.897ZM169.155 228.521C169.995 228.521 170.787 228.329 171.531 227.945C172.275 227.537 173.067 226.949 173.907 226.181V221.321C172.443 221.513 171.207 221.741 170.199 222.005C169.215 222.269 168.411 222.581 167.787 222.941C167.187 223.301 166.743 223.721 166.455 224.201C166.191 224.657 166.059 225.161 166.059 225.713C166.059 226.721 166.359 227.441 166.959 227.873C167.559 228.305 168.291 228.521 169.155 228.521ZM187.416 230.897C186.48 230.897 185.688 230.753 185.04 230.465C184.416 230.177 183.9 229.781 183.492 229.277C183.108 228.773 182.832 228.161 182.664 227.441C182.496 226.721 182.412 225.929 182.412 225.065V215.381H179.82V213.149L182.556 212.969L182.916 208.073H185.4V212.969H190.116V215.381H185.4V225.101C185.4 226.181 185.592 227.021 185.976 227.621C186.384 228.197 187.092 228.485 188.1 228.485C188.412 228.485 188.748 228.437 189.108 228.341C189.468 228.245 189.792 228.137 190.08 228.017L190.656 230.249C190.176 230.417 189.648 230.561 189.072 230.681C188.52 230.825 187.968 230.897 187.416 230.897ZM204.159 230.465L199.155 206.849H202.251L204.735 219.701C204.951 220.997 205.179 222.269 205.419 223.517C205.659 224.765 205.887 226.037 206.103 227.333H206.247C206.511 226.037 206.787 224.765 207.075 223.517C207.363 222.245 207.639 220.973 207.903 219.701L211.179 206.849H213.915L217.191 219.701C217.479 220.949 217.767 222.209 218.055 223.481C218.343 224.753 218.631 226.037 218.919 227.333H219.063C219.279 226.037 219.495 224.765 219.711 223.517C219.927 222.245 220.155 220.973 220.395 219.701L222.879 206.849H225.759L220.863 230.465H217.263L213.699 216.245C213.483 215.333 213.279 214.445 213.087 213.581C212.919 212.693 212.739 211.793 212.547 210.881H212.403C212.211 211.793 212.007 212.693 211.791 213.581C211.599 214.445 211.407 215.333 211.215 216.245L207.723 230.465H204.159ZM229.579 230.465V204.833H232.531V211.817L232.423 215.417C233.263 214.625 234.139 213.953 235.051 213.401C235.963 212.825 237.031 212.537 238.255 212.537C240.103 212.537 241.447 213.113 242.287 214.265C243.151 215.417 243.583 217.121 243.583 219.377V230.465H240.631V219.773C240.631 218.117 240.367 216.929 239.839 216.209C239.311 215.465 238.471 215.093 237.319 215.093C236.407 215.093 235.603 215.321 234.907 215.777C234.211 216.233 233.419 216.905 232.531 217.793V230.465H229.579ZM249.161 230.465V212.969H252.113V230.465H249.161ZM250.673 209.369C250.097 209.369 249.605 209.189 249.197 208.829C248.813 208.469 248.621 208.013 248.621 207.461C248.621 206.885 248.813 206.429 249.197 206.093C249.605 205.733 250.097 205.553 250.673 205.553C251.249 205.553 251.729 205.733 252.113 206.093C252.521 206.429 252.725 206.885 252.725 207.461C252.725 208.013 252.521 208.469 252.113 208.829C251.729 209.189 251.249 209.369 250.673 209.369ZM263.529 230.897C262.593 230.897 261.801 230.753 261.153 230.465C260.529 230.177 260.013 229.781 259.605 229.277C259.221 228.773 258.945 228.161 258.777 227.441C258.609 226.721 258.525 225.929 258.525 225.065V215.381H255.933V213.149L258.669 212.969L259.029 208.073H261.513V212.969H266.229V215.381H261.513V225.101C261.513 226.181 261.705 227.021 262.089 227.621C262.497 228.197 263.205 228.485 264.213 228.485C264.525 228.485 264.861 228.437 265.221 228.341C265.581 228.245 265.905 228.137 266.193 228.017L266.769 230.249C266.289 230.417 265.761 230.561 265.185 230.681C264.633 230.825 264.081 230.897 263.529 230.897ZM276.785 230.897C275.609 230.897 274.505 230.693 273.473 230.285C272.465 229.853 271.577 229.253 270.809 228.485C270.065 227.693 269.477 226.733 269.045 225.605C268.613 224.477 268.397 223.193 268.397 221.753C268.397 220.313 268.613 219.029 269.045 217.901C269.501 216.749 270.089 215.777 270.809 214.985C271.553 214.193 272.393 213.593 273.329 213.185C274.265 212.753 275.237 212.537 276.245 212.537C277.349 212.537 278.333 212.729 279.197 213.113C280.085 213.497 280.817 214.049 281.393 214.769C281.993 215.489 282.449 216.353 282.761 217.361C283.073 218.369 283.229 219.497 283.229 220.745C283.229 221.057 283.217 221.369 283.193 221.681C283.193 221.969 283.169 222.221 283.121 222.437H271.313C271.433 224.309 272.009 225.797 273.041 226.901C274.097 227.981 275.465 228.521 277.145 228.521C277.985 228.521 278.753 228.401 279.449 228.161C280.169 227.897 280.853 227.561 281.501 227.153L282.545 229.097C281.777 229.577 280.925 229.997 279.989 230.357C279.053 230.717 277.985 230.897 276.785 230.897ZM271.277 220.313H280.637C280.637 218.537 280.253 217.193 279.485 216.281C278.741 215.345 277.685 214.877 276.317 214.877C275.693 214.877 275.093 214.997 274.517 215.237C273.965 215.477 273.461 215.837 273.005 216.317C272.549 216.773 272.165 217.337 271.853 218.009C271.565 218.681 271.373 219.449 271.277 220.313Z" fill="white"/>
<path d="M527.898 231.252C526.458 231.252 525.114 230.996 523.866 230.484C522.65 229.94 521.562 229.156 520.602 228.132C519.642 227.108 518.826 225.876 518.154 224.436C517.514 222.964 517.05 221.284 516.762 219.396H513.69V217.332L516.522 217.14C516.49 216.852 516.474 216.564 516.474 216.276C516.474 215.988 516.474 215.7 516.474 215.412C516.474 215.156 516.474 214.9 516.474 214.644C516.474 214.388 516.49 214.132 516.522 213.876H513.69V211.764L516.762 211.524C517.05 209.636 517.53 207.956 518.202 206.484C518.874 204.98 519.706 203.716 520.698 202.692C521.722 201.636 522.89 200.836 524.202 200.292C525.546 199.748 527.002 199.476 528.57 199.476C530.01 199.476 531.354 199.844 532.602 200.58C533.85 201.284 534.89 202.164 535.722 203.22L533.37 205.476C532.698 204.644 531.962 203.972 531.162 203.46C530.362 202.916 529.45 202.644 528.426 202.644C526.314 202.644 524.618 203.428 523.338 204.996C522.058 206.564 521.21 208.74 520.794 211.524H532.986V213.876H520.602C520.57 214.1 520.554 214.324 520.554 214.548C520.554 214.772 520.554 215.012 520.554 215.268C520.554 215.588 520.554 215.908 520.554 216.228C520.554 216.516 520.57 216.804 520.602 217.092H531.066V219.396H520.842C521.258 222.116 522.074 224.244 523.29 225.78C524.538 227.316 526.154 228.084 528.138 228.084C529.322 228.084 530.346 227.796 531.21 227.22C532.106 226.644 532.97 225.796 533.802 224.676L536.154 226.788C535.098 228.196 533.898 229.3 532.554 230.1C531.21 230.868 529.658 231.252 527.898 231.252ZM538.365 230.676V228.324C540.669 226.02 542.717 223.94 544.509 222.084C546.301 220.228 547.805 218.516 549.021 216.948C550.237 215.348 551.165 213.892 551.805 212.58C552.445 211.236 552.765 209.94 552.765 208.692C552.765 206.932 552.285 205.492 551.325 204.372C550.365 203.252 548.909 202.692 546.957 202.692C545.677 202.692 544.493 203.06 543.405 203.796C542.317 204.5 541.325 205.364 540.429 206.388L538.173 204.132C539.453 202.724 540.813 201.604 542.253 200.772C543.693 199.908 545.421 199.476 547.437 199.476C550.285 199.476 552.525 200.308 554.157 201.972C555.789 203.604 556.605 205.78 556.605 208.5C556.605 209.94 556.285 211.396 555.645 212.868C555.037 214.308 554.173 215.812 553.053 217.38C551.965 218.916 550.653 220.532 549.117 222.228C547.613 223.892 545.949 225.668 544.125 227.556C544.957 227.492 545.821 227.428 546.717 227.364C547.613 227.3 548.461 227.268 549.261 227.268H558.141V230.676H538.365ZM566.305 231.252C565.505 231.252 564.817 230.98 564.241 230.436C563.697 229.86 563.425 229.14 563.425 228.276C563.425 227.348 563.697 226.612 564.241 226.068C564.817 225.492 565.505 225.204 566.305 225.204C567.073 225.204 567.729 225.492 568.273 226.068C568.849 226.612 569.137 227.348 569.137 228.276C569.137 229.14 568.849 229.86 568.273 230.436C567.729 230.98 567.073 231.252 566.305 231.252ZM583.49 231.252C582.274 231.252 581.154 231.124 580.13 230.868C579.138 230.644 578.226 230.34 577.394 229.956C576.594 229.572 575.858 229.14 575.186 228.66C574.546 228.148 573.97 227.62 573.458 227.076L575.378 224.484C576.274 225.412 577.33 226.228 578.546 226.932C579.794 227.636 581.314 227.988 583.106 227.988C584.034 227.988 584.898 227.828 585.698 227.508C586.53 227.156 587.25 226.676 587.858 226.068C588.466 225.46 588.946 224.724 589.298 223.86C589.65 222.996 589.826 222.036 589.826 220.98C589.826 218.868 589.234 217.22 588.05 216.036C586.866 214.852 585.282 214.26 583.298 214.26C582.242 214.26 581.33 214.42 580.562 214.74C579.826 215.06 578.994 215.524 578.066 216.132L575.954 214.788L576.962 200.052H592.274V203.46H580.418L579.602 212.532C580.338 212.148 581.074 211.844 581.81 211.62C582.546 211.396 583.378 211.284 584.306 211.284C585.618 211.284 586.85 211.476 588.002 211.86C589.154 212.244 590.162 212.836 591.026 213.636C591.89 214.404 592.562 215.396 593.042 216.612C593.554 217.796 593.81 219.22 593.81 220.884C593.81 222.548 593.522 224.02 592.946 225.3C592.37 226.58 591.602 227.668 590.642 228.564C589.682 229.428 588.578 230.1 587.33 230.58C586.114 231.028 584.834 231.252 583.49 231.252ZM608.069 231.252C604.965 231.252 602.549 229.876 600.821 227.124C599.093 224.372 598.229 220.42 598.229 215.268C598.229 210.116 599.093 206.196 600.821 203.508C602.549 200.82 604.965 199.476 608.069 199.476C611.141 199.476 613.541 200.82 615.269 203.508C616.997 206.196 617.861 210.116 617.861 215.268C617.861 220.42 616.997 224.372 615.269 227.124C613.541 229.876 611.141 231.252 608.069 231.252ZM608.069 228.084C608.965 228.084 609.765 227.844 610.469 227.364C611.205 226.852 611.829 226.084 612.341 225.06C612.885 224.004 613.301 222.676 613.589 221.076C613.877 219.444 614.021 217.508 614.021 215.268C614.021 213.028 613.877 211.108 613.589 209.508C613.301 207.908 612.885 206.612 612.341 205.62C611.829 204.596 611.205 203.844 610.469 203.364C609.765 202.884 608.965 202.644 608.069 202.644C607.173 202.644 606.357 202.884 605.621 203.364C604.885 203.844 604.245 204.596 603.701 205.62C603.189 206.612 602.789 207.908 602.501 209.508C602.213 211.108 602.069 213.028 602.069 215.268C602.069 219.748 602.613 223.012 603.701 225.06C604.821 227.076 606.277 228.084 608.069 228.084Z" fill="white"/>
<path d="M528.006 376.222C526.566 376.222 525.222 375.966 523.974 375.454C522.758 374.91 521.67 374.126 520.71 373.102C519.75 372.078 518.934 370.846 518.262 369.406C517.622 367.934 517.158 366.254 516.87 364.366H513.798V362.302L516.63 362.11C516.598 361.822 516.582 361.534 516.582 361.246C516.582 360.958 516.582 360.67 516.582 360.382C516.582 360.126 516.582 359.87 516.582 359.614C516.582 359.358 516.598 359.102 516.63 358.846H513.798V356.734L516.87 356.494C517.158 354.606 517.638 352.926 518.31 351.454C518.982 349.95 519.814 348.686 520.806 347.662C521.83 346.606 522.998 345.806 524.31 345.262C525.654 344.718 527.11 344.446 528.678 344.446C530.118 344.446 531.462 344.814 532.71 345.55C533.958 346.254 534.998 347.134 535.83 348.19L533.478 350.446C532.806 349.614 532.07 348.942 531.27 348.43C530.47 347.886 529.558 347.614 528.534 347.614C526.422 347.614 524.726 348.398 523.446 349.966C522.166 351.534 521.318 353.71 520.902 356.494H533.094V358.846H520.71C520.678 359.07 520.662 359.294 520.662 359.518C520.662 359.742 520.662 359.982 520.662 360.238C520.662 360.558 520.662 360.878 520.662 361.198C520.662 361.486 520.678 361.774 520.71 362.062H531.174V364.366H520.95C521.366 367.086 522.182 369.214 523.398 370.75C524.646 372.286 526.262 373.054 528.246 373.054C529.43 373.054 530.454 372.766 531.318 372.19C532.214 371.614 533.078 370.766 533.91 369.646L536.262 371.758C535.206 373.166 534.006 374.27 532.662 375.07C531.318 375.838 529.766 376.222 528.006 376.222ZM538.474 375.646V373.294C540.778 370.99 542.826 368.91 544.618 367.054C546.41 365.198 547.914 363.486 549.13 361.918C550.346 360.318 551.274 358.862 551.914 357.55C552.554 356.206 552.874 354.91 552.874 353.662C552.874 351.902 552.394 350.462 551.434 349.342C550.474 348.222 549.018 347.662 547.066 347.662C545.786 347.662 544.602 348.03 543.514 348.766C542.426 349.47 541.434 350.334 540.538 351.358L538.282 349.102C539.562 347.694 540.922 346.574 542.362 345.742C543.802 344.878 545.53 344.446 547.546 344.446C550.394 344.446 552.634 345.278 554.266 346.942C555.898 348.574 556.714 350.75 556.714 353.47C556.714 354.91 556.394 356.366 555.754 357.838C555.146 359.278 554.282 360.782 553.162 362.35C552.074 363.886 550.762 365.502 549.226 367.198C547.722 368.862 546.058 370.638 544.234 372.526C545.066 372.462 545.93 372.398 546.826 372.334C547.722 372.27 548.57 372.238 549.37 372.238H558.25V375.646H538.474ZM566.413 376.222C565.613 376.222 564.925 375.95 564.349 375.406C563.805 374.83 563.533 374.11 563.533 373.246C563.533 372.318 563.805 371.582 564.349 371.038C564.925 370.462 565.613 370.174 566.413 370.174C567.181 370.174 567.837 370.462 568.381 371.038C568.957 371.582 569.245 372.318 569.245 373.246C569.245 374.11 568.957 374.83 568.381 375.406C567.837 375.95 567.181 376.222 566.413 376.222ZM584.318 376.222C581.214 376.222 578.798 374.846 577.07 372.094C575.342 369.342 574.478 365.39 574.478 360.238C574.478 355.086 575.342 351.166 577.07 348.478C578.798 345.79 581.214 344.446 584.318 344.446C587.39 344.446 589.79 345.79 591.518 348.478C593.246 351.166 594.11 355.086 594.11 360.238C594.11 365.39 593.246 369.342 591.518 372.094C589.79 374.846 587.39 376.222 584.318 376.222ZM584.318 373.054C585.214 373.054 586.014 372.814 586.718 372.334C587.454 371.822 588.078 371.054 588.59 370.03C589.134 368.974 589.55 367.646 589.838 366.046C590.126 364.414 590.27 362.478 590.27 360.238C590.27 357.998 590.126 356.078 589.838 354.478C589.55 352.878 589.134 351.582 588.59 350.59C588.078 349.566 587.454 348.814 586.718 348.334C586.014 347.854 585.214 347.614 584.318 347.614C583.422 347.614 582.606 347.854 581.87 348.334C581.134 348.814 580.494 349.566 579.95 350.59C579.438 351.582 579.038 352.878 578.75 354.478C578.462 356.078 578.318 357.998 578.318 360.238C578.318 364.718 578.862 367.982 579.95 370.03C581.07 372.046 582.526 373.054 584.318 373.054ZM608.177 376.222C605.073 376.222 602.657 374.846 600.929 372.094C599.201 369.342 598.337 365.39 598.337 360.238C598.337 355.086 599.201 351.166 600.929 348.478C602.657 345.79 605.073 344.446 608.177 344.446C611.249 344.446 613.649 345.79 615.377 348.478C617.105 351.166 617.969 355.086 617.969 360.238C617.969 365.39 617.105 369.342 615.377 372.094C613.649 374.846 611.249 376.222 608.177 376.222ZM608.177 373.054C609.073 373.054 609.873 372.814 610.577 372.334C611.313 371.822 611.937 371.054 612.449 370.03C612.993 368.974 613.409 367.646 613.697 366.046C613.985 364.414 614.129 362.478 614.129 360.238C614.129 357.998 613.985 356.078 613.697 354.478C613.409 352.878 612.993 351.582 612.449 350.59C611.937 349.566 611.313 348.814 610.577 348.334C609.873 347.854 609.073 347.614 608.177 347.614C607.281 347.614 606.465 347.854 605.729 348.334C604.993 348.814 604.353 349.566 603.809 350.59C603.297 351.582 602.897 352.878 602.609 354.478C602.321 356.078 602.177 357.998 602.177 360.238C602.177 364.718 602.721 367.982 603.809 370.03C604.929 372.046 606.385 373.054 608.177 373.054Z" fill="white"/>
<path d="M138.266 375.373V351.757H151.874V354.277H141.254V361.693H150.218V364.249H141.254V372.817H152.234V375.373H138.266ZM153.389 375.373L159.113 366.229L153.821 357.877H157.025L159.365 361.729C159.629 362.209 159.905 362.701 160.193 363.205C160.481 363.685 160.781 364.165 161.093 364.645H161.237C161.501 364.165 161.765 363.685 162.029 363.205C162.293 362.701 162.557 362.209 162.821 361.729L164.945 357.877H168.041L162.749 366.553L168.437 375.373H165.233L162.677 371.305C162.365 370.777 162.053 370.249 161.741 369.721C161.429 369.193 161.105 368.677 160.769 368.173H160.625C160.313 368.677 160.013 369.193 159.725 369.721C159.437 370.225 159.149 370.753 158.861 371.305L156.485 375.373H153.389ZM171.904 382.753V357.877H174.352L174.604 359.893H174.712C175.504 359.221 176.368 358.645 177.304 358.165C178.264 357.685 179.26 357.445 180.292 357.445C181.42 357.445 182.416 357.661 183.28 358.093C184.144 358.501 184.864 359.101 185.44 359.893C186.016 360.661 186.448 361.597 186.736 362.701C187.048 363.781 187.204 365.005 187.204 366.373C187.204 367.861 187 369.193 186.592 370.369C186.184 371.521 185.632 372.505 184.936 373.321C184.24 374.137 183.436 374.761 182.524 375.193C181.612 375.601 180.652 375.805 179.644 375.805C178.828 375.805 178.012 375.625 177.196 375.265C176.404 374.905 175.6 374.413 174.784 373.789L174.856 376.849V382.753H171.904ZM179.14 373.321C179.86 373.321 180.52 373.165 181.12 372.853C181.744 372.517 182.272 372.061 182.704 371.485C183.16 370.885 183.508 370.153 183.748 369.289C184.012 368.425 184.144 367.453 184.144 366.373C184.144 365.413 184.06 364.537 183.892 363.745C183.724 362.953 183.448 362.281 183.064 361.729C182.704 361.153 182.224 360.709 181.624 360.397C181.048 360.085 180.352 359.929 179.536 359.929C178.792 359.929 178.036 360.133 177.268 360.541C176.524 360.949 175.72 361.537 174.856 362.305V371.485C175.648 372.157 176.416 372.637 177.16 372.925C177.904 373.189 178.564 373.321 179.14 373.321ZM191.872 375.373V357.877H194.32L194.572 361.045H194.68C195.28 359.941 196 359.065 196.84 358.417C197.704 357.769 198.64 357.445 199.648 357.445C200.344 357.445 200.968 357.565 201.52 357.805L200.944 360.397C200.656 360.301 200.392 360.229 200.152 360.181C199.912 360.133 199.612 360.109 199.252 360.109C198.508 360.109 197.728 360.409 196.912 361.009C196.12 361.609 195.424 362.653 194.824 364.141V375.373H191.872ZM211.093 375.805C209.917 375.805 208.813 375.601 207.781 375.193C206.773 374.761 205.885 374.161 205.117 373.393C204.373 372.601 203.785 371.641 203.353 370.513C202.921 369.385 202.705 368.101 202.705 366.661C202.705 365.221 202.921 363.937 203.353 362.809C203.809 361.657 204.397 360.685 205.117 359.893C205.861 359.101 206.701 358.501 207.637 358.093C208.573 357.661 209.545 357.445 210.553 357.445C211.657 357.445 212.641 357.637 213.505 358.021C214.393 358.405 215.125 358.957 215.701 359.677C216.301 360.397 216.757 361.261 217.069 362.269C217.381 363.277 217.537 364.405 217.537 365.653C217.537 365.965 217.525 366.277 217.501 366.589C217.501 366.877 217.477 367.129 217.429 367.345H205.621C205.741 369.217 206.317 370.705 207.349 371.809C208.405 372.889 209.773 373.429 211.453 373.429C212.293 373.429 213.061 373.309 213.757 373.069C214.477 372.805 215.161 372.469 215.809 372.061L216.853 374.005C216.085 374.485 215.233 374.905 214.297 375.265C213.361 375.625 212.293 375.805 211.093 375.805ZM205.585 365.221H214.945C214.945 363.445 214.561 362.101 213.793 361.189C213.049 360.253 211.993 359.785 210.625 359.785C210.001 359.785 209.401 359.905 208.825 360.145C208.273 360.385 207.769 360.745 207.313 361.225C206.857 361.681 206.473 362.245 206.161 362.917C205.873 363.589 205.681 364.357 205.585 365.221ZM226.433 375.805C225.185 375.805 223.997 375.577 222.869 375.121C221.741 374.665 220.757 374.089 219.917 373.393L221.393 371.413C222.161 372.037 222.941 372.541 223.733 372.925C224.549 373.309 225.485 373.501 226.541 373.501C227.693 373.501 228.557 373.237 229.133 372.709C229.709 372.181 229.997 371.533 229.997 370.765C229.997 370.309 229.877 369.913 229.637 369.577C229.397 369.241 229.085 368.953 228.701 368.713C228.341 368.449 227.921 368.221 227.441 368.029C226.961 367.837 226.481 367.645 226.001 367.453C225.377 367.237 224.753 366.997 224.129 366.733C223.505 366.445 222.941 366.109 222.437 365.725C221.957 365.317 221.561 364.849 221.249 364.321C220.937 363.793 220.781 363.157 220.781 362.413C220.781 361.717 220.913 361.069 221.177 360.469C221.465 359.845 221.861 359.317 222.365 358.885C222.893 358.429 223.529 358.081 224.273 357.841C225.017 357.577 225.857 357.445 226.793 357.445C227.897 357.445 228.905 357.637 229.817 358.021C230.753 358.405 231.557 358.873 232.229 359.425L230.825 361.297C230.225 360.841 229.601 360.469 228.953 360.181C228.305 359.893 227.597 359.749 226.829 359.749C225.725 359.749 224.909 360.001 224.381 360.505C223.877 361.009 223.625 361.597 223.625 362.269C223.625 362.677 223.733 363.037 223.949 363.349C224.165 363.637 224.453 363.901 224.813 364.141C225.173 364.357 225.581 364.561 226.037 364.753C226.517 364.921 227.009 365.101 227.513 365.293C228.137 365.533 228.761 365.785 229.385 366.049C230.033 366.313 230.609 366.649 231.113 367.057C231.617 367.441 232.025 367.921 232.337 368.497C232.673 369.073 232.841 369.769 232.841 370.585C232.841 371.305 232.697 371.977 232.409 372.601C232.145 373.225 231.737 373.777 231.185 374.257C230.657 374.737 229.985 375.109 229.169 375.373C228.377 375.661 227.465 375.805 226.433 375.805ZM241.515 375.805C240.267 375.805 239.079 375.577 237.951 375.121C236.823 374.665 235.839 374.089 234.999 373.393L236.475 371.413C237.243 372.037 238.023 372.541 238.815 372.925C239.631 373.309 240.567 373.501 241.623 373.501C242.775 373.501 243.639 373.237 244.215 372.709C244.791 372.181 245.079 371.533 245.079 370.765C245.079 370.309 244.959 369.913 244.719 369.577C244.479 369.241 244.167 368.953 243.783 368.713C243.423 368.449 243.003 368.221 242.523 368.029C242.043 367.837 241.563 367.645 241.083 367.453C240.459 367.237 239.835 366.997 239.211 366.733C238.587 366.445 238.023 366.109 237.519 365.725C237.039 365.317 236.643 364.849 236.331 364.321C236.019 363.793 235.863 363.157 235.863 362.413C235.863 361.717 235.995 361.069 236.259 360.469C236.547 359.845 236.943 359.317 237.447 358.885C237.975 358.429 238.611 358.081 239.355 357.841C240.099 357.577 240.939 357.445 241.875 357.445C242.979 357.445 243.987 357.637 244.899 358.021C245.835 358.405 246.639 358.873 247.311 359.425L245.907 361.297C245.307 360.841 244.683 360.469 244.035 360.181C243.387 359.893 242.679 359.749 241.911 359.749C240.807 359.749 239.991 360.001 239.463 360.505C238.959 361.009 238.707 361.597 238.707 362.269C238.707 362.677 238.815 363.037 239.031 363.349C239.247 363.637 239.535 363.901 239.895 364.141C240.255 364.357 240.663 364.561 241.119 364.753C241.599 364.921 242.091 365.101 242.595 365.293C243.219 365.533 243.843 365.785 244.467 366.049C245.115 366.313 245.691 366.649 246.195 367.057C246.699 367.441 247.107 367.921 247.419 368.497C247.755 369.073 247.923 369.769 247.923 370.585C247.923 371.305 247.779 371.977 247.491 372.601C247.227 373.225 246.819 373.777 246.267 374.257C245.739 374.737 245.067 375.109 244.251 375.373C243.459 375.661 242.547 375.805 241.515 375.805ZM258.829 375.805C257.749 375.805 256.717 375.601 255.733 375.193C254.773 374.785 253.921 374.197 253.177 373.429C252.433 372.637 251.833 371.677 251.377 370.549C250.945 369.397 250.729 368.101 250.729 366.661C250.729 365.197 250.945 363.901 251.377 362.773C251.833 361.621 252.433 360.649 253.177 359.857C253.921 359.065 254.773 358.465 255.733 358.057C256.717 357.649 257.749 357.445 258.829 357.445C259.909 357.445 260.929 357.649 261.889 358.057C262.873 358.465 263.737 359.065 264.481 359.857C265.225 360.649 265.813 361.621 266.245 362.773C266.701 363.901 266.929 365.197 266.929 366.661C266.929 368.101 266.701 369.397 266.245 370.549C265.813 371.677 265.225 372.637 264.481 373.429C263.737 374.197 262.873 374.785 261.889 375.193C260.929 375.601 259.909 375.805 258.829 375.805ZM258.829 373.357C259.573 373.357 260.257 373.201 260.881 372.889C261.505 372.553 262.033 372.097 262.465 371.521C262.921 370.921 263.269 370.213 263.509 369.397C263.749 368.581 263.869 367.669 263.869 366.661C263.869 365.653 263.749 364.741 263.509 363.925C263.269 363.085 262.921 362.365 262.465 361.765C262.033 361.165 261.505 360.709 260.881 360.397C260.257 360.061 259.573 359.893 258.829 359.893C258.085 359.893 257.401 360.061 256.777 360.397C256.153 360.709 255.613 361.165 255.157 361.765C254.725 362.365 254.389 363.085 254.149 363.925C253.909 364.741 253.789 365.653 253.789 366.661C253.789 367.669 253.909 368.581 254.149 369.397C254.389 370.213 254.725 370.921 255.157 371.521C255.613 372.097 256.153 372.553 256.777 372.889C257.401 373.201 258.085 373.357 258.829 373.357Z" fill="white"/>
<path d="M528.006 515.857C526.566 515.857 525.222 515.601 523.974 515.089C522.758 514.545 521.67 513.761 520.71 512.737C519.75 511.713 518.934 510.481 518.262 509.041C517.622 507.569 517.158 505.889 516.87 504.001H513.798V501.937L516.63 501.745C516.598 501.457 516.582 501.169 516.582 500.881C516.582 500.593 516.582 500.305 516.582 500.017C516.582 499.761 516.582 499.505 516.582 499.249C516.582 498.993 516.598 498.737 516.63 498.481H513.798V496.369L516.87 496.129C517.158 494.241 517.638 492.561 518.31 491.089C518.982 489.585 519.814 488.321 520.806 487.297C521.83 486.241 522.998 485.441 524.31 484.897C525.654 484.353 527.11 484.081 528.678 484.081C530.118 484.081 531.462 484.449 532.71 485.185C533.958 485.889 534.998 486.769 535.83 487.825L533.478 490.081C532.806 489.249 532.07 488.577 531.27 488.065C530.47 487.521 529.558 487.249 528.534 487.249C526.422 487.249 524.726 488.033 523.446 489.601C522.166 491.169 521.318 493.345 520.902 496.129H533.094V498.481H520.71C520.678 498.705 520.662 498.929 520.662 499.153C520.662 499.377 520.662 499.617 520.662 499.873C520.662 500.193 520.662 500.513 520.662 500.833C520.662 501.121 520.678 501.409 520.71 501.697H531.174V504.001H520.95C521.366 506.721 522.182 508.849 523.398 510.385C524.646 511.921 526.262 512.689 528.246 512.689C529.43 512.689 530.454 512.401 531.318 511.825C532.214 511.249 533.078 510.401 533.91 509.281L536.262 511.393C535.206 512.801 534.006 513.905 532.662 514.705C531.318 515.473 529.766 515.857 528.006 515.857ZM547.882 515.857C546.666 515.857 545.546 515.729 544.522 515.473C543.53 515.249 542.618 514.945 541.786 514.561C540.954 514.145 540.202 513.681 539.53 513.169C538.89 512.657 538.314 512.113 537.802 511.537L539.818 508.945C540.746 509.905 541.818 510.753 543.034 511.489C544.282 512.225 545.818 512.593 547.642 512.593C549.498 512.593 551.018 512.097 552.202 511.105C553.386 510.081 553.978 508.705 553.978 506.977C553.978 506.081 553.802 505.265 553.45 504.529C553.13 503.761 552.586 503.105 551.818 502.561C551.05 502.017 550.042 501.601 548.794 501.313C547.546 501.025 546.01 500.881 544.186 500.881V497.857C545.818 497.857 547.178 497.713 548.266 497.425C549.386 497.137 550.282 496.737 550.954 496.225C551.658 495.713 552.154 495.105 552.442 494.401C552.73 493.697 552.874 492.945 552.874 492.145C552.874 490.641 552.394 489.457 551.434 488.593C550.506 487.729 549.226 487.297 547.594 487.297C546.314 487.297 545.13 487.585 544.042 488.161C542.986 488.737 541.994 489.489 541.066 490.417L538.954 487.921C540.138 486.801 541.434 485.889 542.842 485.185C544.282 484.449 545.914 484.081 547.738 484.081C549.082 484.081 550.314 484.257 551.434 484.609C552.554 484.961 553.514 485.473 554.314 486.145C555.146 486.785 555.786 487.585 556.234 488.545C556.682 489.505 556.906 490.609 556.906 491.857C556.906 493.713 556.394 495.233 555.37 496.417C554.346 497.601 553.002 498.513 551.338 499.153V499.345C552.266 499.569 553.13 499.905 553.93 500.353C554.73 500.769 555.434 501.313 556.042 501.985C556.65 502.625 557.114 503.377 557.434 504.241C557.786 505.105 557.962 506.065 557.962 507.121C557.962 508.465 557.69 509.681 557.146 510.769C556.634 511.857 555.914 512.785 554.986 513.553C554.09 514.289 553.034 514.865 551.818 515.281C550.602 515.665 549.29 515.857 547.882 515.857ZM566.413 515.857C565.613 515.857 564.925 515.585 564.349 515.041C563.805 514.465 563.533 513.745 563.533 512.881C563.533 511.953 563.805 511.217 564.349 510.673C564.925 510.097 565.613 509.809 566.413 509.809C567.181 509.809 567.837 510.097 568.381 510.673C568.957 511.217 569.245 511.953 569.245 512.881C569.245 513.745 568.957 514.465 568.381 515.041C567.837 515.585 567.181 515.857 566.413 515.857ZM584.318 515.857C581.214 515.857 578.798 514.481 577.07 511.729C575.342 508.977 574.478 505.025 574.478 499.873C574.478 494.721 575.342 490.801 577.07 488.113C578.798 485.425 581.214 484.081 584.318 484.081C587.39 484.081 589.79 485.425 591.518 488.113C593.246 490.801 594.11 494.721 594.11 499.873C594.11 505.025 593.246 508.977 591.518 511.729C589.79 514.481 587.39 515.857 584.318 515.857ZM584.318 512.689C585.214 512.689 586.014 512.449 586.718 511.969C587.454 511.457 588.078 510.689 588.59 509.665C589.134 508.609 589.55 507.281 589.838 505.681C590.126 504.049 590.27 502.113 590.27 499.873C590.27 497.633 590.126 495.713 589.838 494.113C589.55 492.513 589.134 491.217 588.59 490.225C588.078 489.201 587.454 488.449 586.718 487.969C586.014 487.489 585.214 487.249 584.318 487.249C583.422 487.249 582.606 487.489 581.87 487.969C581.134 488.449 580.494 489.201 579.95 490.225C579.438 491.217 579.038 492.513 578.75 494.113C578.462 495.713 578.318 497.633 578.318 499.873C578.318 504.353 578.862 507.617 579.95 509.665C581.07 511.681 582.526 512.689 584.318 512.689ZM608.177 515.857C605.073 515.857 602.657 514.481 600.929 511.729C599.201 508.977 598.337 505.025 598.337 499.873C598.337 494.721 599.201 490.801 600.929 488.113C602.657 485.425 605.073 484.081 608.177 484.081C611.249 484.081 613.649 485.425 615.377 488.113C617.105 490.801 617.969 494.721 617.969 499.873C617.969 505.025 617.105 508.977 615.377 511.729C613.649 514.481 611.249 515.857 608.177 515.857ZM608.177 512.689C609.073 512.689 609.873 512.449 610.577 511.969C611.313 511.457 611.937 510.689 612.449 509.665C612.993 508.609 613.409 507.281 613.697 505.681C613.985 504.049 614.129 502.113 614.129 499.873C614.129 497.633 613.985 495.713 613.697 494.113C613.409 492.513 612.993 491.217 612.449 490.225C611.937 489.201 611.313 488.449 610.577 487.969C609.873 487.489 609.073 487.249 608.177 487.249C607.281 487.249 606.465 487.489 605.729 487.969C604.993 488.449 604.353 489.201 603.809 490.225C603.297 491.217 602.897 492.513 602.609 494.113C602.321 495.713 602.177 497.633 602.177 499.873C602.177 504.353 602.721 507.617 603.809 509.665C604.929 511.681 606.385 512.689 608.177 512.689Z" fill="white"/>
<path d="M138.015 514.936V491.32H141.003V512.38H151.335V514.936H138.015ZM159.267 515.368C157.803 515.368 156.579 514.936 155.595 514.072C154.635 513.208 154.155 511.984 154.155 510.4C154.155 508.48 155.007 507.016 156.711 506.008C158.415 504.976 161.139 504.256 164.883 503.848C164.883 503.296 164.823 502.756 164.703 502.228C164.607 501.7 164.427 501.232 164.163 500.824C163.899 500.416 163.527 500.092 163.047 499.852C162.591 499.588 162.003 499.456 161.283 499.456C160.275 499.456 159.327 499.648 158.439 500.032C157.551 500.416 156.759 500.848 156.063 501.328L154.911 499.276C155.727 498.748 156.723 498.244 157.899 497.764C159.075 497.26 160.371 497.008 161.787 497.008C163.923 497.008 165.471 497.668 166.431 498.988C167.391 500.284 167.871 502.024 167.871 504.208V514.936H165.423L165.171 512.848H165.063C164.223 513.544 163.323 514.144 162.363 514.648C161.403 515.128 160.371 515.368 159.267 515.368ZM160.131 512.992C160.971 512.992 161.763 512.8 162.507 512.416C163.251 512.008 164.043 511.42 164.883 510.652V505.792C163.419 505.984 162.183 506.212 161.175 506.476C160.191 506.74 159.387 507.052 158.763 507.412C158.163 507.772 157.719 508.192 157.431 508.672C157.167 509.128 157.035 509.632 157.035 510.184C157.035 511.192 157.335 511.912 157.935 512.344C158.535 512.776 159.267 512.992 160.131 512.992ZM178.392 515.368C177.456 515.368 176.664 515.224 176.016 514.936C175.392 514.648 174.876 514.252 174.468 513.748C174.084 513.244 173.808 512.632 173.64 511.912C173.472 511.192 173.388 510.4 173.388 509.536V499.852H170.796V497.62L173.532 497.44L173.892 492.544H176.376V497.44H181.092V499.852H176.376V509.572C176.376 510.652 176.568 511.492 176.952 512.092C177.36 512.668 178.068 512.956 179.076 512.956C179.388 512.956 179.724 512.908 180.084 512.812C180.444 512.716 180.768 512.608 181.056 512.488L181.632 514.72C181.152 514.888 180.624 515.032 180.048 515.152C179.496 515.296 178.944 515.368 178.392 515.368ZM189.853 515.368C188.917 515.368 188.125 515.224 187.477 514.936C186.853 514.648 186.337 514.252 185.929 513.748C185.545 513.244 185.269 512.632 185.101 511.912C184.933 511.192 184.849 510.4 184.849 509.536V499.852H182.257V497.62L184.993 497.44L185.353 492.544H187.837V497.44H192.553V499.852H187.837V509.572C187.837 510.652 188.029 511.492 188.413 512.092C188.821 512.668 189.529 512.956 190.537 512.956C190.849 512.956 191.185 512.908 191.545 512.812C191.905 512.716 192.229 512.608 192.517 512.488L193.093 514.72C192.613 514.888 192.085 515.032 191.509 515.152C190.957 515.296 190.405 515.368 189.853 515.368ZM203.108 515.368C201.932 515.368 200.828 515.164 199.796 514.756C198.788 514.324 197.9 513.724 197.132 512.956C196.388 512.164 195.8 511.204 195.368 510.076C194.936 508.948 194.72 507.664 194.72 506.224C194.72 504.784 194.936 503.5 195.368 502.372C195.824 501.22 196.412 500.248 197.132 499.456C197.876 498.664 198.716 498.064 199.652 497.656C200.588 497.224 201.56 497.008 202.568 497.008C203.672 497.008 204.656 497.2 205.52 497.584C206.408 497.968 207.14 498.52 207.716 499.24C208.316 499.96 208.772 500.824 209.084 501.832C209.396 502.84 209.552 503.968 209.552 505.216C209.552 505.528 209.54 505.84 209.516 506.152C209.516 506.44 209.492 506.692 209.444 506.908H197.636C197.756 508.78 198.332 510.268 199.364 511.372C200.42 512.452 201.788 512.992 203.468 512.992C204.308 512.992 205.076 512.872 205.772 512.632C206.492 512.368 207.176 512.032 207.824 511.624L208.868 513.568C208.1 514.048 207.248 514.468 206.312 514.828C205.376 515.188 204.308 515.368 203.108 515.368ZM197.6 504.784H206.96C206.96 503.008 206.576 501.664 205.808 500.752C205.064 499.816 204.008 499.348 202.64 499.348C202.016 499.348 201.416 499.468 200.84 499.708C200.288 499.948 199.784 500.308 199.328 500.788C198.872 501.244 198.488 501.808 198.176 502.48C197.888 503.152 197.696 503.92 197.6 504.784Z" fill="white"/>
<path d="M528.689 646.776C527.249 646.776 525.905 646.52 524.657 646.008C523.441 645.464 522.353 644.68 521.393 643.656C520.433 642.632 519.617 641.4 518.945 639.96C518.305 638.488 517.841 636.808 517.553 634.92H514.481V632.856L517.313 632.664C517.281 632.376 517.265 632.088 517.265 631.8C517.265 631.512 517.265 631.224 517.265 630.936C517.265 630.68 517.265 630.424 517.265 630.168C517.265 629.912 517.281 629.656 517.313 629.4H514.481V627.288L517.553 627.048C517.841 625.16 518.321 623.48 518.993 622.008C519.665 620.504 520.497 619.24 521.489 618.216C522.513 617.16 523.681 616.36 524.993 615.816C526.337 615.272 527.793 615 529.361 615C530.801 615 532.145 615.368 533.393 616.104C534.641 616.808 535.681 617.688 536.513 618.744L534.161 621C533.489 620.168 532.753 619.496 531.953 618.984C531.153 618.44 530.241 618.168 529.217 618.168C527.105 618.168 525.409 618.952 524.129 620.52C522.849 622.088 522.001 624.264 521.585 627.048H533.777V629.4H521.393C521.361 629.624 521.345 629.848 521.345 630.072C521.345 630.296 521.345 630.536 521.345 630.792C521.345 631.112 521.345 631.432 521.345 631.752C521.345 632.04 521.361 632.328 521.393 632.616H531.857V634.92H521.633C522.049 637.64 522.865 639.768 524.081 641.304C525.329 642.84 526.945 643.608 528.929 643.608C530.113 643.608 531.137 643.32 532.001 642.744C532.897 642.168 533.761 641.32 534.593 640.2L536.945 642.312C535.889 643.72 534.689 644.824 533.345 645.624C532.001 646.392 530.449 646.776 528.689 646.776ZM539.157 646.2V643.848C541.461 641.544 543.509 639.464 545.301 637.608C547.093 635.752 548.597 634.04 549.813 632.472C551.029 630.872 551.957 629.416 552.597 628.104C553.237 626.76 553.557 625.464 553.557 624.216C553.557 622.456 553.077 621.016 552.117 619.896C551.157 618.776 549.701 618.216 547.749 618.216C546.469 618.216 545.285 618.584 544.197 619.32C543.109 620.024 542.117 620.888 541.221 621.912L538.965 619.656C540.245 618.248 541.605 617.128 543.045 616.296C544.485 615.432 546.213 615 548.229 615C551.077 615 553.317 615.832 554.949 617.496C556.581 619.128 557.397 621.304 557.397 624.024C557.397 625.464 557.077 626.92 556.437 628.392C555.829 629.832 554.965 631.336 553.845 632.904C552.757 634.44 551.445 636.056 549.909 637.752C548.405 639.416 546.741 641.192 544.917 643.08C545.749 643.016 546.613 642.952 547.509 642.888C548.405 642.824 549.253 642.792 550.053 642.792H558.933V646.2H539.157ZM567.096 646.776C566.296 646.776 565.608 646.504 565.032 645.96C564.488 645.384 564.216 644.664 564.216 643.8C564.216 642.872 564.488 642.136 565.032 641.592C565.608 641.016 566.296 640.728 567.096 640.728C567.864 640.728 568.52 641.016 569.064 641.592C569.64 642.136 569.928 642.872 569.928 643.8C569.928 644.664 569.64 645.384 569.064 645.96C568.52 646.504 567.864 646.776 567.096 646.776ZM584.281 646.776C583.065 646.776 581.945 646.648 580.921 646.392C579.929 646.168 579.017 645.864 578.185 645.48C577.385 645.096 576.649 644.664 575.977 644.184C575.337 643.672 574.761 643.144 574.249 642.6L576.169 640.008C577.065 640.936 578.121 641.752 579.337 642.456C580.585 643.16 582.105 643.512 583.897 643.512C584.825 643.512 585.689 643.352 586.489 643.032C587.321 642.68 588.041 642.2 588.649 641.592C589.257 640.984 589.737 640.248 590.089 639.384C590.441 638.52 590.617 637.56 590.617 636.504C590.617 634.392 590.025 632.744 588.841 631.56C587.657 630.376 586.073 629.784 584.089 629.784C583.033 629.784 582.121 629.944 581.353 630.264C580.617 630.584 579.785 631.048 578.857 631.656L576.745 630.312L577.753 615.576H593.065V618.984H581.209L580.393 628.056C581.129 627.672 581.865 627.368 582.601 627.144C583.337 626.92 584.169 626.808 585.097 626.808C586.409 626.808 587.641 627 588.793 627.384C589.945 627.768 590.953 628.36 591.817 629.16C592.681 629.928 593.353 630.92 593.833 632.136C594.345 633.32 594.601 634.744 594.601 636.408C594.601 638.072 594.313 639.544 593.737 640.824C593.161 642.104 592.393 643.192 591.433 644.088C590.473 644.952 589.369 645.624 588.121 646.104C586.905 646.552 585.625 646.776 584.281 646.776ZM608.861 646.776C605.757 646.776 603.341 645.4 601.613 642.648C599.885 639.896 599.021 635.944 599.021 630.792C599.021 625.64 599.885 621.72 601.613 619.032C603.341 616.344 605.757 615 608.861 615C611.933 615 614.333 616.344 616.061 619.032C617.789 621.72 618.653 625.64 618.653 630.792C618.653 635.944 617.789 639.896 616.061 642.648C614.333 645.4 611.933 646.776 608.861 646.776ZM608.861 643.608C609.757 643.608 610.557 643.368 611.261 642.888C611.997 642.376 612.621 641.608 613.133 640.584C613.677 639.528 614.093 638.2 614.381 636.6C614.669 634.968 614.813 633.032 614.813 630.792C614.813 628.552 614.669 626.632 614.381 625.032C614.093 623.432 613.677 622.136 613.133 621.144C612.621 620.12 611.997 619.368 611.261 618.888C610.557 618.408 609.757 618.168 608.861 618.168C607.965 618.168 607.149 618.408 606.413 618.888C605.677 619.368 605.037 620.12 604.493 621.144C603.981 622.136 603.581 623.432 603.293 625.032C603.005 626.632 602.861 628.552 602.861 630.792C602.861 635.272 603.405 638.536 604.493 640.584C605.613 642.6 607.069 643.608 608.861 643.608Z" fill="white"/>
<path d="M147.554 646.484C145.994 646.484 144.554 646.208 143.234 645.656C141.938 645.104 140.822 644.312 139.886 643.28C138.95 642.224 138.218 640.94 137.69 639.428C137.162 637.892 136.898 636.164 136.898 634.244C136.898 632.348 137.162 630.644 137.69 629.132C138.242 627.62 138.998 626.336 139.958 625.28C140.918 624.224 142.058 623.42 143.378 622.868C144.722 622.292 146.174 622.004 147.734 622.004C148.55 622.004 149.294 622.088 149.966 622.256C150.662 622.424 151.286 622.652 151.838 622.94C152.414 623.204 152.918 623.516 153.35 623.876C153.806 624.212 154.202 624.56 154.538 624.92L152.882 626.864C152.282 626.24 151.586 625.712 150.794 625.28C150.002 624.848 149.006 624.632 147.806 624.632C146.606 624.632 145.526 624.86 144.566 625.316C143.606 625.748 142.79 626.384 142.118 627.224C141.446 628.04 140.918 629.036 140.534 630.212C140.174 631.388 139.994 632.708 139.994 634.172C139.994 635.66 140.162 637.004 140.498 638.204C140.858 639.38 141.362 640.388 142.01 641.228C142.682 642.068 143.498 642.716 144.458 643.172C145.442 643.628 146.57 643.856 147.842 643.856C148.682 643.856 149.474 643.736 150.218 643.496C150.986 643.232 151.61 642.884 152.09 642.452V636.296H147.086V633.812H154.826V643.748C154.058 644.54 153.05 645.2 151.802 645.728C150.554 646.232 149.138 646.484 147.554 646.484ZM160.197 646.052V628.556H162.645L162.897 631.724H163.005C163.605 630.62 164.325 629.744 165.165 629.096C166.029 628.448 166.965 628.124 167.973 628.124C168.669 628.124 169.293 628.244 169.845 628.484L169.269 631.076C168.981 630.98 168.717 630.908 168.477 630.86C168.237 630.812 167.937 630.788 167.577 630.788C166.833 630.788 166.053 631.088 165.237 631.688C164.445 632.288 163.749 633.332 163.149 634.82V646.052H160.197ZM179.418 646.484C178.242 646.484 177.138 646.28 176.106 645.872C175.098 645.44 174.21 644.84 173.442 644.072C172.698 643.28 172.11 642.32 171.678 641.192C171.246 640.064 171.03 638.78 171.03 637.34C171.03 635.9 171.246 634.616 171.678 633.488C172.134 632.336 172.722 631.364 173.442 630.572C174.186 629.78 175.026 629.18 175.962 628.772C176.898 628.34 177.87 628.124 178.878 628.124C179.982 628.124 180.966 628.316 181.83 628.7C182.718 629.084 183.45 629.636 184.026 630.356C184.626 631.076 185.082 631.94 185.394 632.948C185.706 633.956 185.862 635.084 185.862 636.332C185.862 636.644 185.85 636.956 185.826 637.268C185.826 637.556 185.802 637.808 185.754 638.024H173.946C174.066 639.896 174.642 641.384 175.674 642.488C176.73 643.568 178.098 644.108 179.778 644.108C180.618 644.108 181.386 643.988 182.082 643.748C182.802 643.484 183.486 643.148 184.134 642.74L185.178 644.684C184.41 645.164 183.558 645.584 182.622 645.944C181.686 646.304 180.618 646.484 179.418 646.484ZM173.91 635.9H183.27C183.27 634.124 182.886 632.78 182.118 631.868C181.374 630.932 180.318 630.464 178.95 630.464C178.326 630.464 177.726 630.584 177.15 630.824C176.598 631.064 176.094 631.424 175.638 631.904C175.182 632.36 174.798 632.924 174.486 633.596C174.198 634.268 174.006 635.036 173.91 635.9ZM197.277 646.484C196.101 646.484 194.997 646.28 193.965 645.872C192.957 645.44 192.069 644.84 191.301 644.072C190.557 643.28 189.969 642.32 189.537 641.192C189.105 640.064 188.889 638.78 188.889 637.34C188.889 635.9 189.105 634.616 189.537 633.488C189.993 632.336 190.581 631.364 191.301 630.572C192.045 629.78 192.885 629.18 193.821 628.772C194.757 628.34 195.729 628.124 196.737 628.124C197.841 628.124 198.825 628.316 199.689 628.7C200.577 629.084 201.309 629.636 201.885 630.356C202.485 631.076 202.941 631.94 203.253 632.948C203.565 633.956 203.721 635.084 203.721 636.332C203.721 636.644 203.709 636.956 203.685 637.268C203.685 637.556 203.661 637.808 203.613 638.024H191.805C191.925 639.896 192.501 641.384 193.533 642.488C194.589 643.568 195.957 644.108 197.637 644.108C198.477 644.108 199.245 643.988 199.941 643.748C200.661 643.484 201.345 643.148 201.993 642.74L203.037 644.684C202.269 645.164 201.417 645.584 200.481 645.944C199.545 646.304 198.477 646.484 197.277 646.484ZM191.769 635.9H201.129C201.129 634.124 200.745 632.78 199.977 631.868C199.233 630.932 198.177 630.464 196.809 630.464C196.185 630.464 195.585 630.584 195.009 630.824C194.457 631.064 193.953 631.424 193.497 631.904C193.041 632.36 192.657 632.924 192.345 633.596C192.057 634.268 191.865 635.036 191.769 635.9ZM208.044 646.052V628.556H210.492L210.744 631.076H210.852C211.692 630.236 212.568 629.54 213.48 628.988C214.416 628.412 215.496 628.124 216.72 628.124C218.568 628.124 219.912 628.7 220.752 629.852C221.616 631.004 222.048 632.708 222.048 634.964V646.052H219.096V635.36C219.096 633.704 218.832 632.516 218.304 631.796C217.776 631.052 216.936 630.68 215.784 630.68C214.872 630.68 214.068 630.908 213.372 631.364C212.676 631.82 211.884 632.492 210.996 633.38V646.052H208.044ZM240.123 646.052V624.956H232.995V622.436H250.275V624.956H243.147V646.052H240.123ZM258.941 646.484C257.765 646.484 256.661 646.28 255.629 645.872C254.621 645.44 253.733 644.84 252.965 644.072C252.221 643.28 251.633 642.32 251.201 641.192C250.769 640.064 250.553 638.78 250.553 637.34C250.553 635.9 250.769 634.616 251.201 633.488C251.657 632.336 252.245 631.364 252.965 630.572C253.709 629.78 254.549 629.18 255.485 628.772C256.421 628.34 257.393 628.124 258.401 628.124C259.505 628.124 260.489 628.316 261.353 628.7C262.241 629.084 262.973 629.636 263.549 630.356C264.149 631.076 264.605 631.94 264.917 632.948C265.229 633.956 265.385 635.084 265.385 636.332C265.385 636.644 265.373 636.956 265.349 637.268C265.349 637.556 265.325 637.808 265.277 638.024H253.469C253.589 639.896 254.165 641.384 255.197 642.488C256.253 643.568 257.621 644.108 259.301 644.108C260.141 644.108 260.909 643.988 261.605 643.748C262.325 643.484 263.009 643.148 263.657 642.74L264.701 644.684C263.933 645.164 263.081 645.584 262.145 645.944C261.209 646.304 260.141 646.484 258.941 646.484ZM253.433 635.9H262.793C262.793 634.124 262.409 632.78 261.641 631.868C260.897 630.932 259.841 630.464 258.473 630.464C257.849 630.464 257.249 630.584 256.673 630.824C256.121 631.064 255.617 631.424 255.161 631.904C254.705 632.36 254.321 632.924 254.009 633.596C253.721 634.268 253.529 635.036 253.433 635.9ZM273.248 646.484C271.784 646.484 270.56 646.052 269.576 645.188C268.616 644.324 268.136 643.1 268.136 641.516C268.136 639.596 268.988 638.132 270.692 637.124C272.396 636.092 275.12 635.372 278.864 634.964C278.864 634.412 278.804 633.872 278.684 633.344C278.588 632.816 278.408 632.348 278.144 631.94C277.88 631.532 277.508 631.208 277.028 630.968C276.572 630.704 275.984 630.572 275.264 630.572C274.256 630.572 273.308 630.764 272.42 631.148C271.532 631.532 270.74 631.964 270.044 632.444L268.892 630.392C269.708 629.864 270.704 629.36 271.88 628.88C273.056 628.376 274.352 628.124 275.768 628.124C277.904 628.124 279.452 628.784 280.412 630.104C281.372 631.4 281.852 633.14 281.852 635.324V646.052H279.404L279.152 643.964H279.044C278.204 644.66 277.304 645.26 276.344 645.764C275.384 646.244 274.352 646.484 273.248 646.484ZM274.112 644.108C274.952 644.108 275.744 643.916 276.488 643.532C277.232 643.124 278.024 642.536 278.864 641.768V636.908C277.4 637.1 276.164 637.328 275.156 637.592C274.172 637.856 273.368 638.168 272.744 638.528C272.144 638.888 271.7 639.308 271.412 639.788C271.148 640.244 271.016 640.748 271.016 641.3C271.016 642.308 271.316 643.028 271.916 643.46C272.516 643.892 273.248 644.108 274.112 644.108Z" fill="white"/>
</svg>
